<svg xmlns="http://www.w3.org/2000/svg" xmlns:xlink="http://www.w3.org/1999/xlink" width="500" zoomAndPan="magnify" viewBox="0 0 375 374.999991" height="500" preserveAspectRatio="xMidYMid meet" version="1.0"><defs><clipPath id="7ac9c7d6ef"><path d="M 137.671875 37 L 277.964844 37 L 277.964844 230 L 137.671875 230 Z M 137.671875 37 " clip-rule="nonzero"/></clipPath><clipPath id="6fcb04ce46"><path d="M 137.671875 102.785156 C 137.671875 71.894531 169.078125 37.5 207.816406 37.5 C 246.558594 37.5 277.964844 71.894531 277.964844 102.785156 C 277.964844 185.765625 207.816406 229.898438 207.816406 229.898438 C 207.816406 229.898438 137.671875 188 137.671875 102.785156 Z M 137.671875 102.785156 " clip-rule="nonzero"/></clipPath><clipPath id="dee8ebceb9"><path d="M 0.671875 0.441406 L 140.964844 0.441406 L 140.964844 192.921875 L 0.671875 192.921875 Z M 0.671875 0.441406 " clip-rule="nonzero"/></clipPath><clipPath id="cfe0e8e91d"><path d="M 0.671875 65.785156 C 0.671875 34.894531 32.078125 0.5 70.816406 0.5 C 109.558594 0.5 140.964844 34.894531 140.964844 65.785156 C 140.964844 148.765625 70.816406 192.898438 70.816406 192.898438 C 70.816406 192.898438 0.671875 151 0.671875 65.785156 Z M 0.671875 65.785156 " clip-rule="nonzero"/></clipPath><clipPath id="ac31a5366d"><rect x="0" width="141" y="0" height="193"/></clipPath><clipPath id="943a9f049a"><path d="M 102 161 L 256 161 L 256 315 L 102 315 Z M 102 161 " clip-rule="nonzero"/></clipPath><clipPath id="a5d7184a61"><path d="M 215.945312 122.300781 L 295.101562 201.453125 L 159.054688 337.5 L 79.898438 258.347656 Z M 215.945312 122.300781 " clip-rule="nonzero"/></clipPath><clipPath id="416c6ab522"><path d="M 255.523438 161.878906 C 247.097656 204.855469 226.875 269.679688 197.636719 298.917969 C 176.339844 320.214844 141.316406 319.765625 119.476562 297.925781 C 97.632812 276.082031 97.1875 241.058594 118.480469 219.765625 C 147.71875 190.523438 219.886719 211.328125 255.523438 161.878906 Z M 255.523438 161.878906 " clip-rule="nonzero"/></clipPath><clipPath id="ec2990bc6f"><path d="M 0 0.761719 L 153.601562 0.761719 L 153.601562 154 L 0 154 Z M 0 0.761719 " clip-rule="nonzero"/></clipPath><clipPath id="c9f10c3b3c"><path d="M 113.945312 -38.699219 L 193.101562 40.453125 L 57.054688 176.5 L -22.101562 97.347656 Z M 113.945312 -38.699219 " clip-rule="nonzero"/></clipPath><clipPath id="1b5b55817b"><path d="M 153.523438 0.878906 C 145.097656 43.855469 124.875 108.679688 95.636719 137.917969 C 74.339844 159.214844 39.316406 158.765625 17.476562 136.925781 C -4.367188 115.082031 -4.8125 80.058594 16.480469 58.765625 C 45.71875 29.523438 117.886719 50.328125 153.523438 0.878906 Z M 153.523438 0.878906 " clip-rule="nonzero"/></clipPath><clipPath id="4663ddaca1"><rect x="0" width="154" y="0" height="154"/></clipPath><clipPath id="6f9fcf46c1"><path d="M 66.910156 0.8125 L 99.945312 0.8125 L 99.945312 33.722656 L 66.910156 33.722656 Z M 66.910156 0.8125 " clip-rule="nonzero"/></clipPath><clipPath id="2eef31001c"><path d="M 66.910156 0.8125 C 75.574219 0.8125 84.050781 4.324219 90.179688 10.453125 C 96.308594 16.582031 99.816406 25.054688 99.816406 33.722656 L 66.910156 33.722656 Z M 66.910156 0.8125 " clip-rule="nonzero"/></clipPath><clipPath id="fd9009801d"><path d="M 0.910156 0.8125 L 33.945312 0.8125 L 33.945312 33.722656 L 0.910156 33.722656 Z M 0.910156 0.8125 " clip-rule="nonzero"/></clipPath><clipPath id="7938785e01"><path d="M 0.910156 0.8125 C 9.574219 0.8125 18.050781 4.324219 24.179688 10.453125 C 30.308594 16.582031 33.816406 25.054688 33.816406 33.722656 L 0.910156 33.722656 Z M 0.910156 0.8125 " clip-rule="nonzero"/></clipPath><clipPath id="d97ea55fba"><rect x="0" width="34" y="0" height="34"/></clipPath><clipPath id="c072a6dbfd"><path d="M 0.21875 0.761719 L 33.128906 0.761719 L 33.128906 33.722656 L 0.21875 33.722656 Z M 0.21875 0.761719 " clip-rule="nonzero"/></clipPath><clipPath id="324f1ad54a"><path d="M 0.21875 33.722656 C 0.21875 25.054688 3.730469 16.582031 9.859375 10.453125 C 15.984375 4.324219 24.460938 0.8125 33.128906 0.8125 L 33.128906 33.722656 Z M 0.21875 33.722656 " clip-rule="nonzero"/></clipPath><clipPath id="3747d6e7ec"><path d="M 0.21875 0.761719 L 33.128906 0.761719 L 33.128906 33.722656 L 0.21875 33.722656 Z M 0.21875 0.761719 " clip-rule="nonzero"/></clipPath><clipPath id="5d928e528d"><path d="M 0.21875 33.722656 C 0.21875 25.054688 3.730469 16.582031 9.859375 10.453125 C 15.984375 4.324219 24.460938 0.8125 33.128906 0.8125 L 33.128906 33.722656 Z M 0.21875 33.722656 " clip-rule="nonzero"/></clipPath><clipPath id="c7c955f993"><rect x="0" width="34" y="0" height="34"/></clipPath><clipPath id="82927f667d"><path d="M 33.128906 0.8125 L 66.914062 0.8125 L 66.914062 33.867188 L 33.128906 33.867188 Z M 33.128906 0.8125 " clip-rule="nonzero"/></clipPath><clipPath id="d147d37187"><path d="M 0.128906 0.8125 L 33.914062 0.8125 L 33.914062 33.867188 L 0.128906 33.867188 Z M 0.128906 0.8125 " clip-rule="nonzero"/></clipPath><clipPath id="33f2bef3eb"><rect x="0" width="34" y="0" height="34"/></clipPath><clipPath id="40070de139"><path d="M 0.21875 32.257812 L 99.824219 32.257812 L 99.824219 61.132812 L 0.21875 61.132812 Z M 0.21875 32.257812 " clip-rule="nonzero"/></clipPath><clipPath id="fa33c195f1"><path d="M 0.21875 0.257812 L 99.824219 0.257812 L 99.824219 29.132812 L 0.21875 29.132812 Z M 0.21875 0.257812 " clip-rule="nonzero"/></clipPath><clipPath id="c83d0f8e34"><rect x="0" width="100" y="0" height="30"/></clipPath><clipPath id="140cd71c98"><rect x="0" width="100" y="0" height="62"/></clipPath></defs><g clip-path="url(#7ac9c7d6ef)"><g clip-path="url(#6fcb04ce46)"><g transform="matrix(1, 0, 0, 1, 137, 37)"><g clip-path="url(#ac31a5366d)"><g clip-path="url(#dee8ebceb9)"><g clip-path="url(#cfe0e8e91d)"><path fill="#fa4616" d="M 140.964844 192.898438 L 0.671875 192.898438 L 0.671875 0.546875 L 140.964844 0.546875 Z M 140.964844 192.898438 " fill-opacity="1" fill-rule="nonzero"/></g></g></g></g></g></g><g clip-path="url(#943a9f049a)"><g clip-path="url(#a5d7184a61)"><g clip-path="url(#416c6ab522)"><g transform="matrix(1, 0, 0, 1, 102, 161)"><g clip-path="url(#4663ddaca1)"><g clip-path="url(#ec2990bc6f)"><g clip-path="url(#c9f10c3b3c)"><g clip-path="url(#1b5b55817b)"><path fill="#fa4616" d="M 113.945312 -38.699219 L 193.101562 40.453125 L 57.054688 176.5 L -22.101562 97.347656 Z M 113.945312 -38.699219 " fill-opacity="1" fill-rule="nonzero"/></g></g></g></g></g></g></g></g><g transform="matrix(1, 0, 0, 1, 158, 65)"><g clip-path="url(#140cd71c98)"><g clip-path="url(#6f9fcf46c1)"><g clip-path="url(#2eef31001c)"><g transform="matrix(1, 0, 0, 1, 66, 0)"><g clip-path="url(#d97ea55fba)"><g clip-path="url(#fd9009801d)"><g clip-path="url(#7938785e01)"><path fill="#ffffff" d="M 33.816406 0.8125 L 33.816406 33.722656 L 0.910156 33.722656 L 0.910156 0.8125 Z M 33.816406 0.8125 " fill-opacity="1" fill-rule="nonzero"/></g></g></g></g></g></g><g clip-path="url(#c072a6dbfd)"><g clip-path="url(#324f1ad54a)"><g><g clip-path="url(#c7c955f993)"><g clip-path="url(#3747d6e7ec)"><g clip-path="url(#5d928e528d)"><path fill="#ffffff" d="M 0.21875 0.8125 L 33.128906 0.8125 L 33.128906 33.722656 L 0.21875 33.722656 Z M 0.21875 0.8125 " fill-opacity="1" fill-rule="nonzero"/></g></g></g></g></g></g><g clip-path="url(#82927f667d)"><g transform="matrix(1, 0, 0, 1, 33, 0)"><g clip-path="url(#33f2bef3eb)"><g clip-path="url(#d147d37187)"><path fill="#000000" d="M 0.128906 0.8125 L 33.957031 0.8125 L 33.957031 33.867188 L 0.128906 33.867188 Z M 0.128906 0.8125 " fill-opacity="1" fill-rule="nonzero"/></g></g></g></g><g clip-path="url(#40070de139)"><g transform="matrix(1, 0, 0, 1, 0, 32)"><g clip-path="url(#c83d0f8e34)"><g clip-path="url(#fa33c195f1)"><path fill="#ffffff" d="M 0.21875 0.257812 L 99.816406 0.257812 L 99.816406 29.132812 L 0.21875 29.132812 Z M 0.21875 0.257812 " fill-opacity="1" fill-rule="nonzero"/></g></g></g></g></g></g></svg>